<svg width="236" height="160" viewBox="0 0 236 160" fill="none" xmlns="http://www.w3.org/2000/svg">
<path d="M1 112.3C1 112.3 9 121.6 12.5 121.3C16 121 90.5 50.8002 90.5 50.8002C91.1667 46.9669 93 51.3002 95 99.3002C97 147.3 116.167 158.967 125.5 158.8C166.3 -36.7998 225 10.3002 235.5 21C231 10 220 1 204.5 1C158 1 122.833 90.9669 113.5 143.8C103.9 121 102.167 49.6335 102.5 16.8002L90.5 10.3002C93.7 37.9002 32.1667 89.8001 1 112.3Z" fill="white" stroke="white"/>
<path d="M64 123.5C60 126 53 114.5 53 114.5C53 114.5 76.6862 96.0255 95.5 88.5C125.5 76.5 162.5 74 165 75C167.5 76 173.5 84 173.5 84C173.5 84 125.5 84.3913 97 100.5C68.5 116.609 68 121 64 123.5Z" fill="white"/>
</svg>
