<svg xmlns="http://www.w3.org/2000/svg" viewBox="0 0 800 800" role="img" aria-labelledby="title desc">
  <title id="title">Sweet Daisy placeholder</title>
  <desc id="desc">A warm placeholder illustration for Selene's ginger cat photo.</desc>
  <rect width="800" height="800" rx="64" fill="#f5e6c8"/>
  <circle cx="402" cy="428" r="228" fill="#e58a31"/>
  <path d="M210 324 284 152l104 128M590 324 516 152 412 280" fill="#e58a31" stroke="#7a3f16" stroke-width="20" stroke-linejoin="round"/>
  <path d="M286 216 320 292M514 216 480 292" stroke="#f4c06c" stroke-width="24" stroke-linecap="round"/>
  <circle cx="324" cy="396" r="24" fill="#2b2118"/>
  <circle cx="480" cy="396" r="24" fill="#2b2118"/>
  <path d="M392 452c0 18 16 18 16 0 0 18 16 18 16 0" fill="none" stroke="#2b2118" stroke-width="16" stroke-linecap="round"/>
  <path d="M400 430 370 408h60z" fill="#d35b5b"/>
  <path d="M290 502c58 46 164 46 222 0" fill="none" stroke="#7a3f16" stroke-width="18" stroke-linecap="round"/>
  <path d="M226 450h112M214 500h124M574 450H462M586 500H462" stroke="#7a3f16" stroke-width="12" stroke-linecap="round"/>
  <text x="400" y="704" text-anchor="middle" font-family="Verdana, Geneva, sans-serif" font-size="42" font-weight="700" fill="#7a3f16">Sweet Daisy</text>
</svg>
